<svg xmlns="http://www.w3.org/2000/svg" viewBox="0 0 256 289">
  <path d="M128 288.464c-3.975 0-7.685-1.06-11.13-2.915l-35.247-20.936c-5.3-2.915-2.65-3.975-1.06-4.505 7.155-2.385 8.48-2.915 15.9-7.155.796-.53 1.856-.265 2.65.265l27.032 16.166c1.06.53 2.385.53 3.18 0l105.74-61.217c1.06-.53 1.59-1.59 1.59-2.915V83.08c0-1.325-.53-2.385-1.59-2.915L129.06 19.213c-1.06-.53-2.385-.53-3.18 0L20.14 80.165c-1.06.53-1.59 1.855-1.59 2.915v122.17c0 1.06.53 2.385 1.59 2.915l28.887 16.695c15.635 7.95 25.44-1.325 25.44-10.6V93.68c0-1.59 1.325-3.18 3.18-3.18h13.515c1.59 0 3.18 1.325 3.18 3.18v120.58c0 20.936-11.395 33.126-31.27 33.126-6.095 0-10.865 0-24.38-6.625L10.6 224.066C4.24 220.356 0 213.466 0 206.045V83.875c0-7.42 4.24-14.31 10.6-18.02L116.34 4.638c6.095-3.445 14.31-3.445 20.405 0L242.485 65.855c6.36 3.71 10.6 10.6 10.6 18.02v122.17c0 7.42-4.24 14.575-10.6 18.02l-105.74 61.217c-2.915 1.855-6.89 2.915-10.865 2.915" fill="#539E43"/>
  <path d="M160.066 205.25c-45.32 0-54.86-20.936-54.86-38.427 0-1.59 1.325-3.18 3.18-3.18h13.78c1.59 0 2.915 1.06 2.915 2.65 2.12 14.045 8.215 20.936 36.307 20.936 22.26 0 31.8-5.035 31.8-16.96 0-6.89-2.65-11.925-37.367-15.37-28.887-2.915-46.908-9.275-46.908-32.33 0-21.466 18.02-34.186 48.233-34.186 33.92 0 50.615 11.66 52.735 37.102 0 .795-.265 1.59-.795 2.385-.53.53-1.325 1.06-2.12 1.06h-13.78c-1.325 0-2.65-1.06-2.915-2.385-3.18-14.575-11.395-19.345-33.125-19.345-24.38 0-27.296 8.48-27.296 14.84 0 7.685 3.445 10.07 36.307 14.31 32.595 4.24 47.968 10.335 47.968 33.126-.265 23.322-19.345 36.572-53.06 36.572" fill="#539E43"/>
</svg>