<svg xmlns="http://www.w3.org/2000/svg" viewBox="0 0 432.07 445.38">
  <g fill="none" stroke="#fff" stroke-width="12.4651">
    <path d="M323.205 324.227c2.833-23.601 1.984-27.062 19.563-23.239l4.463.392c13.517.615 31.199-2.174 41.587-7 22.362-10.376 35.622-27.7 13.572-23.148-50.297 10.376-53.755-6.655-53.755-6.655 53.111-78.803 75.313-178.836 56.149-203.322C352.514-5.534 262.036 26.049 260.522 26.869l-.482.089c-9.938-2.062-21.06-3.294-33.554-3.496-22.761-.374-40.032 5.967-53.133 15.904 0 0-161.408-66.498-153.899 83.628 1.597 31.936 45.777 241.655 98.47 178.31 19.259-23.163 37.871-42.748 37.871-42.748 9.242 6.14 20.307 9.272 31.912 8.147l.897-.765c-.281 2.876-.157 5.689.359 9.019-13.572 15.167-9.584 17.83-36.723 23.416-27.457 5.659-11.326 15.734-.797 18.367 12.768 3.193 42.305 7.716 62.268-20.224l-.795 3.188c5.325 4.26 4.965 30.619 5.72 49.452.756 18.834 2.017 36.409 6.856 46.816 4.838 10.407 10.822 37.847 56.945 30.012 38.588-6.556 58.543-23.515 61.262-51.693 1.938-20.1 6.303-17.18 6.592-35.258l3.511-10.62c4.044-33.901 1.248-44.87 25.396-39.789l5.996.518c14.044.706 32.402-2.786 43.14-7.451 23.201-10.1 36.939-27.062 14.083-22.632-52.207 10.124-55.763-6.894-55.763-6.894" stroke-linecap="butt" stroke-linejoin="bevel"/>
  </g>
  <g>
    <path d="M402.395 271.23c-50.302 10.376-53.76-6.655-53.76-6.655 53.111-78.808 75.313-178.843 56.153-203.326-52.27-66.785-142.752-35.2-144.262-34.38l-.486.089a187.397 187.397 0 0 0-33.548-3.499c-22.761-.374-40.032 5.967-53.133 15.904 0 0-161.408-66.498-153.899 83.628 1.597 31.936 45.777 241.655 98.47 178.31 19.259-23.163 37.871-42.748 37.871-42.748 9.242 6.14 20.307 9.272 31.912 8.147l.897-.765a38.18 38.18 0 0 0 .359 9.019c-13.572 15.167-9.584 17.83-36.723 23.416-27.457 5.659-11.326 15.734-.797 18.367 12.768 3.193 42.307 7.716 62.266-20.224l-.795 3.188c5.325 4.26 9.063 27.789 8.428 49.088-.636 21.3-1.085 35.898 3.753 47.268 4.838 11.371 10.822 37.847 56.945 30.012 38.588-6.556 58.992-23.515 61.723-51.693 1.938-20.1 5.354-17.18 5.642-35.258l3.011-8.62c3.539-29.447 1.248-44.87 25.396-39.789l5.996.518c14.044.706 32.402-2.786 43.14-7.451 23.201-10.1 36.939-27.062 14.083-22.632z" fill="#336791"/>
    <path d="M230.397 172.298c-3.142-72.429 39.57-136.91 90.834-129.44-43.5-12.97-97.14 39.54-78.96 130.84l-11.874-1.4z" fill="#fff" fill-opacity=".1"/>
  </g>
  <path d="M323.205 324.227c2.833-23.601 1.984-27.062 19.563-23.239l4.463.392c13.517.615 31.199-2.174 41.587-7 22.362-10.376 35.622-27.7 13.572-23.148-50.297 10.376-53.755-6.655-53.755-6.655 53.111-78.803 75.313-178.836 56.149-203.322-52.27-66.789-142.752-35.2-144.266-34.38l-.482.089c-9.938-2.062-21.06-3.294-33.554-3.496-22.761-.374-40.032 5.967-53.133 15.904 0 0-161.408-66.498-153.899 83.628 1.597 31.936 45.777 241.655 98.47 178.31 19.259-23.163 37.871-42.748 37.871-42.748 9.242 6.14 20.307 9.272 31.912 8.147l.897-.765c-.281 2.876-.157 5.689.359 9.019-13.572 15.167-9.584 17.83-36.723 23.416-27.457 5.659-11.326 15.734-.797 18.367 12.768 3.193 42.305 7.716 62.268-20.224l-.795 3.188c5.325 4.26 4.965 30.619 5.72 49.452.756 18.834 2.017 36.409 6.856 46.816 4.838 10.407 10.822 37.847 56.945 30.012 38.588-6.556 58.543-23.515 61.262-51.693 1.938-20.1 6.303-17.18 6.592-35.258l3.511-10.62c4.044-33.901 1.248-44.87 25.396-39.789l5.996.518c14.044.706 32.402-2.786 43.14-7.451 23.201-10.1 36.939-27.062 14.083-22.632-52.207 10.124-55.763-6.894-55.763-6.894" fill="none" stroke="#fff" stroke-width="4.155" stroke-linecap="butt" stroke-linejoin="bevel"/>
  <path d="M298.727 57.07c-28.425 2.032-31.917 18.546-30.034 32.563" fill="none" stroke="#fff" stroke-width="5.8177" stroke-linecap="round"/>
  <path d="M160.879 258.807c-1.738 39.757-.753 79.68 5.504 89.04 8.396 12.578 28.818 20.478 44.118 16.324" fill="none" stroke="#fff" stroke-width="5.8177" stroke-linecap="round"/>
</svg>